<svg xmlns="http://www.w3.org/2000/svg" viewBox="0 0 64 64" width="64" height="64">
  <defs>
    <linearGradient id="g" x1="0" y1="0" x2="1" y2="1">
      <stop offset="0%" stop-color="#6d5efc"/>
      <stop offset="100%" stop-color="#22d3ee"/>
    </linearGradient>
  </defs>
  <rect x="2" y="2" width="60" height="60" rx="16" fill="url(#g)"/>
  <path d="M32 14c-1.2 0-2.2 1-2.2 2.2v2.1c-4.6.6-8 3.7-8 7.8 0 4.6 3.7 6.4 8.6 7.7 3.7 1 5.1 1.8 5.1 3.6 0 1.8-1.8 3-4.6 3-2.7 0-4.7-1-6.2-2.3a2.2 2.2 0 1 0-2.9 3.3c1.8 1.6 4 2.7 6.4 3.2v2c0 1.2 1 2.2 2.2 2.2s2.2-1 2.2-2.2v-2c4.7-.7 8-3.8 8-8 0-4.9-4-6.6-8.8-7.9-3.6-.9-4.9-1.7-4.9-3.4 0-1.6 1.6-2.8 4.2-2.8 2 0 3.7.6 5.1 1.6a2.2 2.2 0 0 0 2.6-3.6c-1.6-1.1-3.4-1.8-5.4-2.1v-2.1c0-1.2-1-2.2-2.2-2.2z" fill="#fff"/>
</svg>
